<svg width="22" height="18" viewBox="0 0 22 18" xmlns="http://www.w3.org/2000/svg">
<path d="M17.0001 16H5.00006C4.20441 16 3.44135 15.6839 2.87874 15.1213C2.31613 14.5587 2.00006 13.7956 2.00006 13V5C2.00006 4.73478 1.8947 4.48043 1.70717 4.29289C1.51963 4.10536 1.26528 4 1.00006 4C0.734845 4 0.480491 4.10536 0.292954 4.29289C0.105418 4.48043 6.10352e-05 4.73478 6.10352e-05 5V13C6.10352e-05 14.3261 0.526845 15.5979 1.46453 16.5355C1.92882 16.9998 2.48002 17.3681 3.08664 17.6194C3.69327 17.8707 4.34345 18 5.00006 18H17.0001C17.2653 18 17.5196 17.8946 17.7072 17.7071C17.8947 17.5196 18.0001 17.2652 18.0001 17C18.0001 16.7348 17.8947 16.4804 17.7072 16.2929C17.5196 16.1054 17.2653 16 17.0001 16ZM13.0001 8H9.00006C8.73484 8 8.48049 8.10536 8.29295 8.29289C8.10542 8.48043 8.00006 8.73478 8.00006 9C8.00006 9.26522 8.10542 9.51957 8.29295 9.70711C8.48049 9.89464 8.73484 10 9.00006 10H13.0001C13.2653 10 13.5196 9.89464 13.7072 9.70711C13.8947 9.51957 14.0001 9.26522 14.0001 9C14.0001 8.73478 13.8947 8.48043 13.7072 8.29289C13.5196 8.10536 13.2653 8 13.0001 8ZM22.0001 6.94C21.9896 6.84813 21.9695 6.75763 21.9401 6.67V6.58C21.892 6.47718 21.8278 6.38267 21.7501 6.3L15.7501 0.3C15.6674 0.222216 15.5729 0.158081 15.4701 0.11H15.3801C15.2785 0.0517412 15.1663 0.0143442 15.0501 0H7.00006C6.20441 0 5.44135 0.316071 4.87874 0.87868C4.31613 1.44129 4.00006 2.20435 4.00006 3V11C4.00006 11.7956 4.31613 12.5587 4.87874 13.1213C5.44135 13.6839 6.20441 14 7.00006 14H19.0001C19.7957 14 20.5588 13.6839 21.1214 13.1213C21.684 12.5587 22.0001 11.7956 22.0001 11V7C22.0001 7 22.0001 7 22.0001 6.94ZM16.0001 3.41L18.5901 6H17.0001C16.7348 6 16.4805 5.89464 16.293 5.70711C16.1054 5.51957 16.0001 5.26522 16.0001 5V3.41ZM20.0001 11C20.0001 11.2652 19.8947 11.5196 19.7072 11.7071C19.5196 11.8946 19.2653 12 19.0001 12H7.00006C6.73484 12 6.48049 11.8946 6.29295 11.7071C6.10542 11.5196 6.00006 11.2652 6.00006 11V3C6.00006 2.73478 6.10542 2.48043 6.29295 2.29289C6.48049 2.10536 6.73484 2 7.00006 2H14.0001V5C14.0001 5.79565 14.3161 6.55871 14.8787 7.12132C15.4413 7.68393 16.2044 8 17.0001 8H20.0001V11ZM9.00006 6H11.0001C11.2653 6 11.5196 5.89464 11.7072 5.70711C11.8947 5.51957 12.0001 5.26522 12.0001 5C12.0001 4.73478 11.8947 4.48043 11.7072 4.29289C11.5196 4.10536 11.2653 4 11.0001 4H9.00006C8.73484 4 8.48049 4.10536 8.29295 4.29289C8.10542 4.48043 8.00006 4.73478 8.00006 5C8.00006 5.26522 8.10542 5.51957 8.29295 5.70711C8.48049 5.89464 8.73484 6 9.00006 6Z" fill="current"/>
</svg>
