<svg width="20" height="20" viewBox="0 0 20 20" xmlns="http://www.w3.org/2000/svg">
<path d="M19.3197 7.55L17.4297 6.92L18.3197 5.14C18.4099 4.95369 18.4401 4.74397 18.4061 4.53978C18.372 4.33558 18.2755 4.14699 18.1297 4L15.9997 1.87C15.8519 1.72209 15.6615 1.62421 15.4552 1.59013C15.249 1.55605 15.0372 1.58748 14.8497 1.68L13.0697 2.57L12.4397 0.680003C12.3732 0.482996 12.2469 0.311629 12.0784 0.189751C11.9099 0.0678737 11.7076 0.00154767 11.4997 3.33354e-06H8.4997C8.29005 -0.000537828 8.08554 0.0648223 7.91507 0.186845C7.7446 0.308868 7.61678 0.481382 7.5497 0.680003L6.9197 2.57L5.1397 1.68C4.95338 1.58978 4.74366 1.55961 4.53947 1.59364C4.33528 1.62767 4.14668 1.72423 3.9997 1.87L1.8697 4C1.72178 4.14777 1.6239 4.33818 1.58982 4.54446C1.55574 4.75074 1.58717 4.96251 1.6797 5.15L2.5697 6.93L0.679698 7.56C0.48269 7.62654 0.311324 7.75283 0.189446 7.92131C0.0675686 8.08979 0.0012425 8.29207 -0.000301842 8.5V11.5C-0.000843004 11.7096 0.0645171 11.9142 0.18654 12.0846C0.308563 12.2551 0.481077 12.3829 0.679698 12.45L2.5697 13.08L1.6797 14.86C1.58948 15.0463 1.5593 15.256 1.59333 15.4602C1.62737 15.6644 1.72393 15.853 1.8697 16L3.9997 18.13C4.14746 18.2779 4.33787 18.3758 4.54415 18.4099C4.75043 18.444 4.96221 18.4125 5.1497 18.32L6.9297 17.43L7.5597 19.32C7.62678 19.5186 7.7546 19.6911 7.92507 19.8132C8.09554 19.9352 8.30005 20.0005 8.5097 20H11.5097C11.7193 20.0005 11.9239 19.9352 12.0943 19.8132C12.2648 19.6911 12.3926 19.5186 12.4597 19.32L13.0897 17.43L14.8697 18.32C15.0548 18.4079 15.2625 18.4369 15.4646 18.4029C15.6667 18.3689 15.8535 18.2737 15.9997 18.13L18.1297 16C18.2776 15.8522 18.3755 15.6618 18.4096 15.4555C18.4437 15.2493 18.4122 15.0375 18.3197 14.85L17.4297 13.07L19.3197 12.44C19.5167 12.3735 19.6881 12.2472 19.8099 12.0787C19.9318 11.9102 19.9982 11.7079 19.9997 11.5V8.5C20.0002 8.29036 19.9349 8.08585 19.8129 7.91537C19.6908 7.7449 19.5183 7.61709 19.3197 7.55ZM17.9997 10.78L16.7997 11.18C16.5238 11.2695 16.2706 11.418 16.0578 11.6151C15.8449 11.8122 15.6775 12.0533 15.5672 12.3216C15.4568 12.5899 15.4061 12.879 15.4187 13.1688C15.4312 13.4586 15.5066 13.7422 15.6397 14L16.2097 15.14L15.1097 16.24L13.9997 15.64C13.7433 15.5122 13.4624 15.4411 13.176 15.4313C12.8897 15.4215 12.6046 15.4734 12.34 15.5834C12.0755 15.6934 11.8376 15.8589 11.6426 16.0688C11.4476 16.2787 11.3 16.5281 11.2097 16.8L10.8097 18H9.2197L8.8197 16.8C8.73019 16.5241 8.58172 16.2709 8.3846 16.0581C8.18747 15.8452 7.9464 15.6778 7.67812 15.5675C7.40983 15.4571 7.12075 15.4064 6.83092 15.419C6.5411 15.4315 6.25746 15.5069 5.9997 15.64L4.8597 16.21L3.7597 15.11L4.3597 14C4.49279 13.7422 4.56822 13.4586 4.58074 13.1688C4.59327 12.879 4.5426 12.5899 4.43224 12.3216C4.32188 12.0533 4.15448 11.8122 3.94164 11.6151C3.72881 11.418 3.47564 11.2695 3.1997 11.18L1.9997 10.78V9.22L3.1997 8.82C3.47564 8.73049 3.72881 8.58203 3.94164 8.3849C4.15448 8.18778 4.32188 7.94671 4.43224 7.67842C4.5426 7.41014 4.59327 7.12105 4.58074 6.83123C4.56822 6.5414 4.49279 6.25777 4.3597 6L3.7897 4.89L4.8897 3.79L5.9997 4.36C6.25746 4.4931 6.5411 4.56852 6.83092 4.58105C7.12075 4.59358 7.40983 4.5429 7.67812 4.43254C7.9464 4.32218 8.18747 4.15478 8.3846 3.94195C8.58172 3.72912 8.73019 3.47595 8.8197 3.2L9.2197 2H10.7797L11.1797 3.2C11.2692 3.47595 11.4177 3.72912 11.6148 3.94195C11.8119 4.15478 12.053 4.32218 12.3213 4.43254C12.5896 4.5429 12.8786 4.59358 13.1685 4.58105C13.4583 4.56852 13.7419 4.4931 13.9997 4.36L15.1397 3.79L16.2397 4.89L15.6397 6C15.5119 6.25645 15.4408 6.53735 15.431 6.82369C15.4212 7.11003 15.4731 7.39513 15.5831 7.65969C15.6931 7.92424 15.8586 8.16207 16.0685 8.35708C16.2784 8.5521 16.5278 8.69973 16.7997 8.79L17.9997 9.19V10.78ZM9.9997 6C9.20857 6 8.43521 6.2346 7.77742 6.67413C7.11962 7.11365 6.60693 7.73836 6.30418 8.46927C6.00143 9.20017 5.92222 10.0044 6.07656 10.7804C6.2309 11.5563 6.61186 12.269 7.17127 12.8284C7.73068 13.3878 8.44341 13.7688 9.21934 13.9231C9.99526 14.0775 10.7995 13.9983 11.5304 13.6955C12.2613 13.3928 12.8861 12.8801 13.3256 12.2223C13.7651 11.5645 13.9997 10.7911 13.9997 10C13.9997 8.93914 13.5783 7.92172 12.8281 7.17158C12.078 6.42143 11.0606 6 9.9997 6ZM9.9997 12C9.60414 12 9.21746 11.8827 8.88856 11.6629C8.55966 11.4432 8.30331 11.1308 8.15194 10.7654C8.00056 10.3999 7.96096 9.99778 8.03813 9.60982C8.1153 9.22186 8.30578 8.86549 8.58548 8.58579C8.86519 8.30608 9.22155 8.1156 9.60952 8.03843C9.99748 7.96126 10.3996 8.00087 10.7651 8.15224C11.1305 8.30362 11.4429 8.55996 11.6626 8.88886C11.8824 9.21776 11.9997 9.60444 11.9997 10C11.9997 10.5304 11.789 11.0391 11.4139 11.4142C11.0388 11.7893 10.5301 12 9.9997 12Z" fill="current"/>
</svg>
