<svg width="22" height="18" viewBox="0 0 22 18" xmlns="http://www.w3.org/2000/svg">
<path d="M11.3003 9.22C11.8339 8.75813 12.2619 8.18688 12.5552 7.54502C12.8485 6.90316 13.0003 6.20571 13.0003 5.5C13.0003 4.17392 12.4735 2.90215 11.5358 1.96447C10.5982 1.02678 9.32639 0.5 8.00031 0.5C6.67422 0.5 5.40245 1.02678 4.46477 1.96447C3.52709 2.90215 3.00031 4.17392 3.00031 5.5C3.0003 6.20571 3.15211 6.90316 3.44543 7.54502C3.73875 8.18688 4.16673 8.75813 4.7003 9.22C3.30044 9.85388 2.11277 10.8775 1.27929 12.1685C0.4458 13.4596 0.00177703 14.9633 0.000305176 16.5C0.000305176 16.7652 0.105662 17.0196 0.293198 17.2071C0.480735 17.3946 0.735089 17.5 1.00031 17.5C1.26552 17.5 1.51988 17.3946 1.70741 17.2071C1.89495 17.0196 2.00031 16.7652 2.00031 16.5C2.00031 14.9087 2.63245 13.3826 3.75766 12.2574C4.88288 11.1321 6.40901 10.5 8.00031 10.5C9.5916 10.5 11.1177 11.1321 12.2429 12.2574C13.3682 13.3826 14.0003 14.9087 14.0003 16.5C14.0003 16.7652 14.1057 17.0196 14.2932 17.2071C14.4807 17.3946 14.7351 17.5 15.0003 17.5C15.2655 17.5 15.5199 17.3946 15.7074 17.2071C15.8949 17.0196 16.0003 16.7652 16.0003 16.5C15.9988 14.9633 15.5548 13.4596 14.7213 12.1685C13.8878 10.8775 12.7002 9.85388 11.3003 9.22ZM8.00031 8.5C7.40696 8.5 6.82694 8.32405 6.33359 7.99441C5.84025 7.66476 5.45573 7.19623 5.22867 6.64805C5.0016 6.09987 4.94219 5.49667 5.05795 4.91473C5.17371 4.33279 5.45943 3.79824 5.87898 3.37868C6.29854 2.95912 6.83309 2.6734 7.41503 2.55764C7.99698 2.44189 8.60018 2.5013 9.14836 2.72836C9.69653 2.95542 10.1651 3.33994 10.4947 3.83329C10.8244 4.32664 11.0003 4.90666 11.0003 5.5C11.0003 6.29565 10.6842 7.05871 10.1216 7.62132C9.55902 8.18393 8.79595 8.5 8.00031 8.5ZM17.7403 8.82C18.3803 8.09933 18.7983 7.20905 18.9441 6.25634C19.0899 5.30362 18.9572 4.32907 18.5621 3.45C18.1669 2.57093 17.5261 1.8248 16.7168 1.30142C15.9075 0.77805 14.9641 0.499742 14.0003 0.5C13.7351 0.5 13.4807 0.605357 13.2932 0.792893C13.1057 0.98043 13.0003 1.23478 13.0003 1.5C13.0003 1.76522 13.1057 2.01957 13.2932 2.20711C13.4807 2.39464 13.7351 2.5 14.0003 2.5C14.796 2.5 15.559 2.81607 16.1216 3.37868C16.6842 3.94129 17.0003 4.70435 17.0003 5.5C16.9989 6.02524 16.8596 6.5409 16.5964 6.99542C16.3331 7.44994 15.9552 7.82738 15.5003 8.09C15.352 8.17552 15.2282 8.29766 15.1407 8.44474C15.0531 8.59182 15.0048 8.7589 15.0003 8.93C14.9961 9.09976 15.0352 9.2678 15.114 9.41826C15.1927 9.56872 15.3084 9.69665 15.4503 9.79L15.8403 10.05L15.9703 10.12C17.1757 10.6917 18.1926 11.596 18.9013 12.7263C19.61 13.8566 19.9809 15.1659 19.9703 16.5C19.9703 16.7652 20.0757 17.0196 20.2632 17.2071C20.4507 17.3946 20.7051 17.5 20.9703 17.5C21.2355 17.5 21.4899 17.3946 21.6774 17.2071C21.8649 17.0196 21.9703 16.7652 21.9703 16.5C21.9785 14.9654 21.5941 13.4543 20.8538 12.1101C20.1134 10.7659 19.0417 9.63331 17.7403 8.82Z" fill="current"/>
</svg>
